<?xml version="1.0" encoding="utf-8"?>
<!-- Generator: Adobe Illustrator 25.4.1, SVG Export Plug-In . SVG Version: 6.00 Build 0)  -->
<svg version="1.1" id="Capa_1" xmlns="http://www.w3.org/2000/svg" xmlns:xlink="http://www.w3.org/1999/xlink" x="0px" y="0px"
	 viewBox="0 0 852 129" style="enable-background:new 0 0 852 129;" xml:space="preserve">
<style type="text/css">
	.st0{fill:#FFFFFF;}
</style>
<g id="Grupo_15-2" transform="translate(-631.591 2721.13)">
	<g id="Grupo_14-2" transform="translate(1617.591 321.87)">
		<path id="Trazado_55-2" class="st0" d="M-956.67-2935.14h-23.02l19.74-78.72h55.23l-8.65,34.44l-8.24,4.92l5.8,4.92l-8.65,34.44
			h-23.02l6.17-24.61l-7.96-4.92L-956.67-2935.14z M-943.09-2989.27l-1.24,4.92h9.2l1.24-4.92H-943.09z"/>
		<path id="Trazado_56-2" class="st0" d="M-870.5-3013.87l-19.74,78.72h-23.02l19.74-78.72H-870.5z"/>
		<path id="Trazado_57-2" class="st0" d="M-847.39-2969.58l-8.65,34.44h-23.02l19.74-78.72h23.02l0.55,34.44l8.65-34.44h23.02
			l-19.74,78.72h-23.02L-847.39-2969.58z"/>
		<path id="Trazado_58-2" class="st0" d="M-803.42-2935.14l-6.72-9.84l14.77-59.04l11.69-9.84h36.82l6.72,9.84l-14.77,59.04
			l-11.69,9.84H-803.42z M-776.04-2989.27l-7.41,29.52h9.2l7.41-29.52H-776.04z"/>
		<path id="Trazado_59-2" class="st0" d="M-693.22-2935.14h-23.02l19.74-78.72h55.22l-8.65,34.44l-8.24,4.92l5.8,4.92l-8.65,34.44
			h-23.02l6.17-24.61l-7.96-4.92L-693.22-2935.14z M-679.65-2989.27l-1.24,4.92h9.2l1.24-4.92H-679.65z"/>
		<path id="Trazado_60-2" class="st0" d="M-630.08-3013.87h46.03l-6.17,24.61h-23.02l-1.24,4.92l20.57,9.84l-25.5,9.84l-1.24,4.92
			h23.02l-6.17,24.61h-46.02L-630.08-3013.87z"/>
		<path id="Trazado_61-2" class="st0" d="M-569.58-2935.14h-23.02l19.74-78.72h55.22l-8.65,34.44l-26.68,14.76h-9.2L-569.58-2935.14
			z M-556.01-2989.27l-1.24,4.92h9.2l1.24-4.92H-556.01z"/>
		<path id="Trazado_62-2" class="st0" d="M-451.21-3013.87l-17.26,68.88l-11.69,9.84h-36.81l-6.72-9.84l17.26-68.88h23.02
			l-13.58,54.12h9.2l13.58-54.12H-451.21z"/>
		<path id="Trazado_63-2" class="st0" d="M-440.01-3013.87h46.02l-6.17,24.61h-23.02l-1.24,4.92l20.57,9.84l-25.49,9.84l-1.24,4.92
			h23.02l-6.17,24.61h-46.02L-440.01-3013.87z"/>
		<path id="Trazado_64-2" class="st0" d="M-382.79-3013.87h46.02l-6.17,24.61h-18.41l11,29.52l-6.17,24.61h-46.02l6.17-24.61h18.41
			l-11-29.52L-382.79-3013.87z"/>
		<path id="Trazado_65-2" class="st0" d="M-294.92-2989.26l-13.58,54.13h-23.02l13.58-54.13h-13.81l6.17-24.61h50.62l-6.17,24.61
			H-294.92z"/>
		<path id="Trazado_66-2" class="st0" d="M-274.29-2935.14l-6.72-9.84l14.77-59.04l11.69-9.84h36.81l6.72,9.84l-14.77,59.04
			l-11.69,9.84H-274.29z M-246.91-2989.27l-7.41,29.52h9.2l7.41-29.52H-246.91z"/>
		<path id="Trazado_67-2" class="st0" d="M-197.33-3013.87h46.02l-6.17,24.61h-18.41l11,29.52l-6.17,24.61h-46.02l6.17-24.61h18.41
			l-11-29.52L-197.33-3013.87z"/>
	</g>
</g>
</svg>
