<?xml version="1.0" encoding="utf-8"?>
<!-- Generator: Adobe Illustrator 25.4.1, SVG Export Plug-In . SVG Version: 6.00 Build 0)  -->
<svg version="1.1" id="Capa_1" xmlns="http://www.w3.org/2000/svg" xmlns:xlink="http://www.w3.org/1999/xlink" x="0px" y="0px"
	 viewBox="0 0 232 174" style="enable-background:new 0 0 232 174;" xml:space="preserve">
<style type="text/css">
	.st0{fill:#FFFFFF;}
	.st1{fill:none;}
</style>
<g id="Iso_logo-7" transform="translate(44 2505)">
	<path id="Trazado_24-7" class="st0" d="M118-2407.05c-3.33,0-6.62-0.72-9.72-2.12c-3.25-1.24-5.98-3.85-7.63-7.31
		c-3.59-7.98-7.13-16.16-10.56-24.06c-1.4-3.23-2.8-6.46-4.2-9.69c-0.53-1.22-1.54-3.71-1.54-3.74l-0.31-0.74h0.71
		c3.96,0,8.25,0,12.62-0.02c4.28,0,8.64-0.02,12.84-0.02l-3.91-8.61l-2.5-4.82l-6.64-12.42l1.21,0.48l1.85,0.74
		c7.04,2.79,13.13,5.21,17.59,11.09c2.02,2.66,2.4,6.53,1.18,11.85c-0.52,2.31,0.05,4.76,1.51,6.46c4.03,6.3,8.31,13.09,12.44,19.65
		c2.38,3.79,4.85,7.71,7.19,11.4l0.23,0.35l-0.28,0.32c-3.16,3.68-6.93,6.61-11.08,8.61C125.51-2407.97,121.78-2407.08,118-2407.05z
		 M85.49-2453.65c0.34,0.84,0.88,2.17,1.23,2.97c1.4,3.23,2.8,6.45,4.2,9.69c3.42,7.91,6.96,16.08,10.55,24.06
		c1.55,3.22,4.11,5.66,7.15,6.82c6.48,2.91,13.69,2.74,20.06-0.47c3.92-1.89,7.49-4.63,10.5-8.07c-2.27-3.59-4.65-7.37-6.96-11.04
		c-4.13-6.56-8.4-13.35-12.43-19.64c-1.62-1.96-2.25-4.74-1.66-7.35c1.14-4.95,0.82-8.51-0.99-10.89
		c-4.31-5.66-10.28-8.04-17.2-10.79l-0.65-0.26l5.31,9.91l2.52,4.87l4.62,10.16H111c-4.43,0-9.06,0-13.59,0.02
		c-4.12,0.03-8.16,0.04-11.92,0.04L85.49-2453.65z"/>
	<path id="Trazado_25-7" class="st0" d="M100.39-2377.7c-0.72,3.35-1.39,5.66-2.16,8.45c-1.95,7.47-5.28,14.37-9.77,20.22
		c3.42,1.66,11.27,5.22,11.22,5.48c-6.75,0-15.09,0.35-21.82-0.08c-5.15-0.35-7.32-5-8.31-10.12c-2.49-12.88,0.62-24.57,6.38-35.52
		c2.01-4.12,4.9-7.59,8.4-10.07c2.58-2.23,5.99-2.72,8.97-1.31C99.36-2394.49,99.87-2386.09,100.39-2377.7z M74.84-2372.46
		c-2.2,20.28,6.37,20.41,9.2,19.54c-1.11-1.41-2.07-2.96-2.87-4.62c-4.59-10.67-0.78-23.6,8.51-28.87c0.29-0.16,0.58-0.32,0.87-0.46
		c1.77-0.86,3.43-1.48,3.43-1.48c-2.22-3.01-6.05-3.65-8.93-1.5c-5.45,3.79-9.18,10.15-10.19,17.39H74.84z"/>
	<path id="Trazado_26-7" class="st0" d="M96.06-2349.06l0.21-0.71c0,0,0.23-0.79,1.09-4.35c2.03-7.41,2.91-15.18,2.6-22.94l0,0
		v-0.16c-0.52-8.39-1.07-17.07-6.92-23.04l-0.04-0.05c-1.33-1.42-2.76-2.7-4.28-3.84l-1.16-0.89l1.39-0.07
		c3.79-0.23,7.48,1.41,10.16,4.5c4.79,5.1,6.22,12.03,7.59,18.72c0.15,0.76,0.31,1.52,0.47,2.28c0.82,4.15,1.29,8.39,1.41,12.64
		c0.12,2.83,1.04,3.34,3.59,3.32c10.11-0.08,20.39-0.07,30.34-0.07h10.47h0.35l0.09,0.39c2.44,10.62,2.85,13.45,2.87,13.57
		l0.09,0.61h-0.54c-4.59,0-10.83,0-17.43,0c-14.88,0-31.74-0.02-41.68,0.07L96.06-2349.06z M100.87-2377.13
		c0.32,7.88-0.57,15.77-2.63,23.3c-0.47,1.97-0.75,3.09-0.92,3.71c10.01-0.09,26.48-0.08,41.06-0.07c6.35,0,12.35,0,16.88,0
		c-0.22-1.28-0.9-4.79-2.66-12.47h-10.11c-9.94,0-20.22,0-30.33,0.07c-2.28,0.02-4.34-0.3-4.51-4.31
		c-0.12-4.19-0.58-8.36-1.39-12.45c-0.16-0.76-0.32-1.52-0.47-2.28c-1.34-6.55-2.73-13.33-7.35-18.22l-0.06-0.07
		c-2.11-2.45-4.94-3.9-7.93-4.08c1.14,0.89,2.21,1.89,3.19,3.01c6.12,6.25,6.7,15.53,7.21,23.71L100.87-2377.13z"/>
	<path id="Trazado_27-7" class="st0" d="M146.6-2343.3c3.05-1.57,12.1-4.98,12.1-4.98c1.21-0.8,1.77-2.46,1.35-3.99
		c-1.07-5.25-3.17-13.95-3.17-13.95c2.02-6.52,4.76-12.72,8.14-18.45c4.46,11.41,7.04,22.59,2.93,34.58
		c-1.27,4.16-4.76,6.88-8.6,6.68C155.66-2343.35,151.05-2343.3,146.6-2343.3z"/>
	<path id="Trazado_28-7" class="st0" d="M41.99-2349.6l0.21-0.71c0,0,0.35-1.2,0.7-2.29c2.06-6.48,3.27-13.28,3.59-20.17
		c0.69-6.02-0.44-12.13-3.21-17.3c-0.25-0.37-0.52-0.73-0.8-1.06c-0.42-0.44-0.78-0.96-1.04-1.54c-0.49-1.08-0.91-2.04-1.35-3.06
		c-0.54-1.24-1.15-2.64-2-4.53l-0.54-1.18l1.09,0.44c5.34,1.96,9.6,6.64,11.54,12.68c2.24,9.66,2.86,19.72,1.8,29.64
		c-0.2,0.97-0.17,1.98,0.08,2.94h0.02c1.45,0.66,2.87,1.42,4.25,2.26c1.31,0.81,2.66,1.53,4.04,2.17l2.1,0.93l-2.25,0.08
		c0,0-11.53,0.44-17.55,0.67L41.99-2349.6z M42.3-2392.99c0.25,0.4,0.53,0.79,0.83,1.14c0.32,0.38,0.62,0.78,0.89,1.2
		c2.89,5.35,4.08,11.69,3.37,17.93c-0.33,6.99-1.56,13.89-3.64,20.47c-0.18,0.54-0.35,1.12-0.48,1.55
		c4.5-0.18,11.45-0.44,14.86-0.57c-0.77-0.41-1.51-0.85-2.23-1.28c-1.33-0.82-2.7-1.55-4.11-2.2c-0.15-0.03-0.28-0.11-0.38-0.24
		c-0.44-0.51-0.55-1.77-0.35-3.84v-0.03c1.04-9.76,0.44-19.66-1.76-29.16c-1.69-5.29-5.28-9.49-9.85-11.53
		c0.59,1.31,1.05,2.37,1.46,3.33c0.45,1.03,0.87,2,1.36,3.1l0.03,0.07L42.3-2392.99z"/>
	<path id="Trazado_29-7" class="st0" d="M104.22-2468.43c0.84,1.61,1.67,3.23,2.51,4.84c-5.94-2-12.13-2.45-18.17-4.84H104.22z"/>
	<g id="Grupo_8-7" transform="translate(-1599.033 -189.013)">
		<path id="Trazado_30-7" class="st1" d="M1714.82-2204.36c-4.58,10.97,0.24,17.93,12.52,17.29c-3.91-5.49-7.39-10.39-10.9-15.27
			C1715.95-2203.03,1715.39-2203.65,1714.82-2204.36z"/>
		<path id="Trazado_31-7" class="st0" d="M1767.71-2247.38c-1.74-4.14-5.09-7.09-9.02-7.92c3.67,16.25-0.03,31.14-8.75,35.24
			c1.6-7.44,2.31-15.1,2.12-22.77c-3.62,3.72-6.7,6.95-9.85,10.06c-4.26,4.39-8.89,8.29-13.82,11.62
			c-6.48,3.24-13.81,3.41-20.4,0.47c-3.15-1.21-5.78-3.74-7.39-7.08c-5.03-11.18-9.85-22.49-14.75-33.75
			c-0.54-1.23-2.8-6.94-3.69-8.79c-3.78-7.83-7.39-15.78-11.44-24.5c-1.59,3.19-2.84,6.59-3.71,10.12
			c-0.69,2.78-1.08,5.64-1.16,8.52c0,0-7.36,0.4-10.66,0.39c-8.65-0.02-17.39,0.44-26.05,0.44c10.37,1.73,26.35,2.55,36.74,3.33
			c0.55,1.61,1.21,3.16,1.97,4.65c1,1.97,2.41,3.62,4.1,4.81c1.11,0.67,2.27,1.24,3.46,1.7c-0.83,0.86-1.7,1.67-2.6,2.43
			c-19.08,15.29-40.29,26.75-62.71,33.88c-2.37,1.04-4.99,1.1-7.39,0.17c-1.85-0.9-2.85-2.29-2.12-4.58c0.6-1.91,1.82-5.1,4.12-4.99
			c2.94,0.14,6.35,0.28,7.78-7.08c-3.87,0.75-7.57,2.42-10.84,4.92c-3.54,2.01-5.46,6.5-4.67,10.95c0.65,3.63,4.1,6.04,8.77,6.21
			c3.5,0.13,5.76,0.03,9.68,0.03c-2.09,4.47-3.48,6.9-3.48,6.9c-1.73,0.14-17.48,0.53-21.54,0.53c-6.34,0.08-12.72-0.05-19.53,0.3
			c3.86,0.42,7.35,0.77,10.85,1.15c8.14,0.99,16.28,2.05,24.42,2.95c5.97,0.66,5.98,0.57,5.99,7.63c0,1.63,0,1.72,0,3.27
			c0,0,3.27-1.32,4.9-1.77c-1.17,4.04-3.5,11.24-4.56,15.45c-0.19,1.53-1.43,2.59-2.76,2.36c-0.03,0-0.06-0.01-0.08-0.02
			c-6.33-0.05-13.06,0.33-19.84,0.33c4.54,1.26,21.45,4.13,21.45,4.13c0.27,1.91,1.18,8.07,1.18,8.07s0.97,4.69,1.61,7.46
			c0,0-13.51,4.15-16.09,5.69c2.02-0.12,42.09,0,43.76,0.1c-2.76-1.43-5.59-2.66-8.48-3.7c-4.34-1.54-2.7-0.93,0.11-4.91
			c2.62-3.81,4.73-8.06,6.26-12.59c3.08-8.74,4.04-21.32,2.73-25.93c-0.99-3.31-2.29-6.48-3.88-9.46
			c5.08,1.83,9.05,6.41,10.63,12.25c2.31,9.32,2.94,19.08,1.85,28.69c-0.26,2.45-0.48,3.7-0.48,3.7c2.96,1.28,8.12,3.63,11.07,4.93
			c1.18-5.82,1.9-10.97,2.75-16.63c1.93-12.9,6.08-24.83,15.04-33.76c3.53-3.51,8.37-4.73,12.86-3.23c2.35,0.43,4.51,1.74,6.14,3.72
			c5.25,5.56,6.38,13.34,7.96,20.76c0.81,4.12,1.28,8.32,1.4,12.55c0.14,3.37,1.56,3.84,4.05,3.81c13.6-0.11,27.19-0.06,40.79-0.06
			c1.43-3.89,2.93-7.79,4.26-11.73c3.61-10.75,8.78-20.76,11.7-31.83C1771.04-2227.69,1772.2-2237.69,1767.71-2247.38z
			 M1623.56-2167.95c0.73,1.17,1.54,2.28,2.41,3.31c-1.19,0.85-8.42-1.11-9.06-11.71c-0.66-10.83,4.62-20.83,10.39-24.06
			c2.89-1.61,7.1-2.12,8.86,0.94C1626.23-2196.68,1619.2-2177.57,1623.56-2167.95z M1715.31-2204.42c0.57,0.71,1.13,1.33,1.62,2.02
			c3.5,4.89,6.99,9.79,10.9,15.28C1715.56-2186.49,1710.73-2193.46,1715.31-2204.42z"/>
	</g>
</g>
</svg>
