<?xml version="1.0" encoding="utf-8"?>
<!-- Generator: Adobe Illustrator 25.4.1, SVG Export Plug-In . SVG Version: 6.00 Build 0)  -->
<svg version="1.1" id="Capa_1" xmlns="http://www.w3.org/2000/svg" xmlns:xlink="http://www.w3.org/1999/xlink" x="0px" y="0px"
	 viewBox="0 0 149 154" style="enable-background:new 0 0 149 154;" xml:space="preserve">
<style type="text/css">
	.st0{fill:#FFFFFF;}
</style>
<g id="Grupo_11-2" transform="translate(1475.125 1383.667)">
	<path id="Trazado_45-2" class="st0" d="M-1458.81-1245.13c1.16-5.01,2.26-9.8,3.37-14.57c1.25-5.39,2.53-10.77,3.71-16.18
		c0.12-0.73,0-1.47-0.34-2.12c-5.47-10.05-8.08-21.59-7.5-33.2c1.5-26.13,13.39-45.17,35.85-55.49
		c29.52-13.52,63.71,1.11,76.35,32.68c0.55,1.38,1.06,2.78,1.51,4.19c10.74,32.74-5.37,68.59-35.99,80.07c-1,0.37-2,0.72-3.02,1.04
		c-14.45,4.57-29.99,2.9-43.3-4.65c-0.89-0.53-1.94-0.63-2.9-0.29c-8.82,2.76-17.64,5.49-26.47,8.2
		C-1457.85-1245.34-1458.2-1245.28-1458.81-1245.13z M-1444.64-1260.79c0.61-0.14,0.95-0.2,1.28-0.3c4.68-1.44,9.39-2.86,14.07-4.36
		c0.83-0.31,1.75-0.17,2.46,0.39c10.23,7.26,22.7,9.99,34.78,7.6c26.51-4.84,44.33-31.75,39.8-60.1
		c-4.53-28.35-29.7-47.4-56.21-42.55c-26.51,4.84-44.33,31.75-39.8,60.1c0.97,6.09,2.95,11.94,5.84,17.29
		c1.52,2.45,1.89,5.51,1,8.29C-1442.68-1270.03-1443.55-1265.52-1444.64-1260.79z"/>
	<path id="Trazado_46-2" class="st0" d="M-1385.12-1279.29c-5.73-0.38-11.34-1.95-16.51-4.62c-14.46-6.97-25.07-20.73-28.72-37.24
		c-1.21-4.98,0.47-10.25,4.26-13.42c1.18-1.15,2.49-2.14,3.9-2.94c2.24-1.48,5.19-0.73,6.57,1.67c0.14,0.25,0.26,0.51,0.37,0.78
		c1.49,3.59,2.76,7.3,3.99,11c0.85,2.24,0.25,4.81-1.48,6.36c-0.71,0.71-1.25,1.63-1.98,2.3c-1.16,1.06-1.06,2.1-0.43,3.46
		c2.27,4.87,5.7,9.02,9.95,12.02c3.18,2.3,6.66,4.14,10,6.19c0.72,0.59,1.75,0.45,2.31-0.32c0.03-0.05,0.06-0.09,0.09-0.14
		c1.33-1.66,2.78-3.2,4.2-4.77c1.33-2.02,3.89-2.6,5.87-1.34c2.96,1.51,5.82,3.24,8.67,4.98c1.47,0.89,2.31,2.63,2.13,4.44
		c0.21,5.23-3.24,9.81-8.06,10.72C-1381.84-1279.69-1383.75-1279.52-1385.12-1279.29z"/>
</g>
</svg>
